{
    "accessors": [
        {
            "bufferView": 2,
            "componentType": 5126,
            "count": 34,
            "max": [1.2009811401367188, 1.0, 1.0],
            "min": [-1.0, -1.0, -1.0],
            "type": "VEC3"
        },
        {
            "bufferView": 2,
            "byteOffset": 408,
            "componentType": 5126,
            "count": 34,
            "max": [0.8235564231872559, 0.9849501252174377, 1.0],
            "min": [-1.0, -0.9849501252174377, -1.0],
            "type": "VEC3"
        },
        {
            "bufferView": 3,
            "componentType": 5126,
            "count": 34,
            "max": [0.9849451780319214, 1.0, 0.27327054738998413, 1.0],
            "min": [-0.9837673306465149, -1.0, -0.045530274510383606, 1.0],
            "type": "VEC4"
        },
        {
            "bufferView": 1,
            "componentType": 5126,
            "count": 34,
            "max": [0.9803371429443359, 0.9880855083465576],
            "min": [0.07028526067733765, 0.018850333988666534],
            "type": "VEC2"
        },
        {
            "bufferView": 0,
            "componentType": 5125,
            "count": 48,
            "type": "SCALAR"
        }
    ],
    "asset": {
        "extras": {
            "author": "ppengotsu (https://sketchfab.com/ppengotsu)",
            "license": "CC-BY-4.0 (http://creativecommons.org/licenses/by/4.0/)",
            "source": "https://sketchfab.com/3d-models/87a21e216ae342bfbadfd487bb0893b0",
            "title": "将棋の駒 -歩兵"
        },
        "generator": "Sketchfab-12.66.0",
        "version": "2.0"
    },
    "bufferViews": [
        {
            "buffer": 0,
            "byteLength": 192,
            "name": "floatBufferViews",
            "target": 34963
        },
        {
            "buffer": 0,
            "byteLength": 272,
            "byteOffset": 192,
            "byteStride": 8,
            "name": "floatBufferViews",
            "target": 34962
        },
        {
            "buffer": 0,
            "byteLength": 816,
            "byteOffset": 464,
            "byteStride": 12,
            "name": "floatBufferViews",
            "target": 34962
        },
        {
            "buffer": 0,
            "byteLength": 544,
            "byteOffset": 1280,
            "byteStride": 16,
            "name": "floatBufferViews",
            "target": 34962
        }
    ],
    "buffers": [
        {
            "byteLength": 1824,
            "uri": "scene.bin"
        }
    ],
    "images": [
        {
            "uri": "textures/Material.001_baseColor.png"
        },
        {
            "uri": "textures/Material.001_metallicRoughness.png"
        },
        {
            "uri": "textures/Material.001_normal.png"
        }
    ],
    "materials": [
        {
            "doubleSided": true,
            "emissiveFactor": [1.0, 1.0, 1.0],
            "emissiveTexture": {
                "index": 0
            },
            "name": "Material.001",
            "normalTexture": {
                "index": 2
            },
            "occlusionTexture": {
                "index": 1
            },
            "pbrMetallicRoughness": {
                "baseColorTexture": {
                    "index": 0
                },
                "metallicRoughnessTexture": {
                    "index": 1
                }
            }
        }
    ],
    "meshes": [
        {
            "name": "Root_Material.001_0",
            "primitives": [
                {
                    "attributes": {
                        "NORMAL": 1,
                        "POSITION": 0,
                        "TANGENT": 2,
                        "TEXCOORD_0": 3
                    },
                    "indices": 4,
                    "material": 0,
                    "mode": 4
                }
            ]
        }
    ],
    "nodes": [
        {
            "children": [1],
            "matrix": [
                0.00016498944023624063, 0.0, 0.0, 0.0, 0.0, 3.6635015074058114e-20,
                -0.00016498944023624063, 0.0, 0.0, 0.00016498944023624063,
                3.6635015074058114e-20, 0.0, 0.0, 0.0, 0.0, 1.0
            ],
            "name": "Sketchfab_model"
        },
        {
            "children": [2],
            "matrix": [
                1.0, 0.0, 0.0, 0.0, 0.0, 0.0, 1.0, 0.0, 0.0, -1.0, 0.0, 0.0, 0.0, 0.0,
                0.0, 1.0
            ],
            "name": "51ff30556a6740b2a6144400c0fdb8ba.fbx"
        },
        {
            "children": [3],
            "name": "RootNode"
        },
        {
            "children": [4],
            "matrix": [
                48.803592681884766, 0.0, 0.0, 0.0, 0.0, -7.951114476494879e-6,
                -48.80359268188412, 0.0, 0.0, 15.41238689422587, -2.5109965438570703e-6,
                0.0, 0.0, 0.0, 0.0, 1.0
            ],
            "name": "Root"
        },
        {
            "mesh": 0,
            "name": "Root_Material.001_0"
        }
    ],
    "samplers": [
        {
            "magFilter": 9729,
            "minFilter": 9987,
            "wrapS": 10497,
            "wrapT": 10497
        }
    ],
    "scene": 0,
    "scenes": [
        {
            "name": "Sketchfab_Scene",
            "nodes": [0]
        }
    ],
    "textures": [
        {
            "sampler": 0,
            "source": 0
        },
        {
            "sampler": 0,
            "source": 1
        },
        {
            "sampler": 0,
            "source": 2
        }
    ]
}
